PathFileType	4	(X/Y/Z)	C:\Users\preethimanoharan\Documents\OpenSim\4.3\Models\Opensim Spine models\FBLS model Full body musculoskeletal model of lumar spine\Ha Pilot data\test_data_markers.trc
DataRate	CameraRate	NumFrames	NumMarkers	Units	OrigDataRate	OrigDataStartFrame	OrigNumFrames
100.000000	100.000000	4	41	mm	100.000000	1158	1854
Frame#	Time	RFHD			LFHD			LBHD			RBHD			LSHO			LUPA			LELB			LFRM			LWRA			LWRB			LFIN			RSHO			RUPA			RELB			RFRM			RWRA			RWRB			RFIN			LTHI			LKNE			LTIB			LANK			LHEE			LTOE			LMT5			RTHI			RKNE			RTIB			RANK			RHEE			RTOE			RMT5			CLAV			STRN			LASI			RASI			C7			LPSI			RPSI			RBAK			T10			
		X1	Y1	Z1	X2	Y2	Z2	X3	Y3	Z3	X4	Y4	Z4	X5	Y5	Z5	X6	Y6	Z6	X7	Y7	Z7	X8	Y8	Z8	X9	Y9	Z9	X10	Y10	Z10	X11	Y11	Z11	X12	Y12	Z12	X13	Y13	Z13	X14	Y14	Z14	X15	Y15	Z15	X16	Y16	Z16	X17	Y17	Z17	X18	Y18	Z18	X19	Y19	Z19	X20	Y20	Z20	X21	Y21	Z21	X22	Y22	Z22	X23	Y23	Z23	X24	Y24	Z24	X25	Y25	Z25	X26	Y26	Z26	X27	Y27	Z27	X28	Y28	Z28	X29	Y29	Z29	X30	Y30	Z30	X31	Y31	Z31	X32	Y32	Z32	X33	Y33	Z33	X34	Y34	Z34	X35	Y35	Z35	X36	Y36	Z36	X37	Y37	Z37	X38	Y38	Z38	X39	Y39	Z39	X40	Y40	Z40	X41	Y41	Z41	

1159	11.58	1096.364013671875	1683.12744140625	-738.6996459960936	964.0885620117188	1688.844604492188	-730.9238891601561	969.4521484375	1678.29541015625	-590.2860717773436	1102.220947265625	1685.035278320312	-603.2149047851561	905.2313232421875	1467.132080078125	-587.2215576171874	744.7977294921875	1460.160278320312	-628.9650268554686	590.536865234375	1443.09423828125	-612.7645874023436	494.9792175292969	1474.074584960938	-627.7600097656249	364.20361328125	1488.901489257812	-711.6359863281249	356.4150695800781	1480.276245117188	-646.6704101562499	283.1206665039062	1484.38330078125	-685.0744628906249	1154.948364257812	1472.079223632812	-603.3130493164061	1327.495361328125	1409.987426757812	-607.5233764648436	1452.016357421875	1426.20263671875	-625.2957763671874	1600.800048828125	1427.9619140625	-649.8821411132811	1693.397338867188	1447.477416992188	-730.3538208007811	1696.38232421875	1414.88525390625	-671.5496826171874	1770.431030273438	1435.599243164062	-699.6727905273436	846.3980102539062	622.6049194335938	-644.7118530273438	859.8253784179688	473.7961120605469	-626.7505493164062	838.787109375	261.4985656738282	-579.9760131835938	847.8709716796875	77.67829132080081	-566.2744140625	893.7293701171875	40.44374084472659	-521.4661865234375	874.9398193359375	46.46888351440434	-700.25537109375	820.18359375	20.75453186035161	-668.4087524414062	1214.861206054688	616.82763671875	-649.2197875976562	1204.653076171875	477.0281066894532	-635.2225952148438	1232.964111328125	339.7937316894532	-584.2447509765625	1195.994995117188	79.99261474609378	-558.6068115234375	1153.81005859375	49.02272796630862	-518.095458984375	1171.587036132812	51.40932083129887	-682.8795776367188	1240.268676757812	18.1660480499268	-648.651611328125	1027.693969726562	1412.624389648438	-728.0594482421874	1026.839111328125	1241.96875	-763.9860229492186	907.8317260742188	958.65283203125	-727.9699096679686	1157.408813476562	967.0087890625	-711.4330444335936	1031.19970703125	1484.647827148438	-591.4525756835936	961.4015502929688	1004.68408203125	-574.3245239257811	1082.530151367188	1000.94189453125	-568.5495605468749	1112.384399414062	1317.474609375	-548.3037719726561	1030.564331054688	1112.606689453125	-580.6401367187499	
1160	11.59	1096.283935546875	1683.100708007812	-738.7722778320311	964.063720703125	1688.799682617188	-730.9660034179686	968.7935180664062	1678.831665039062	-590.1862792968749	1102.285888671875	1685.001098632812	-603.3347167968749	905.4320678710938	1467.109497070312	-587.2160644531249	744.7916870117188	1460.171997070312	-628.9933471679686	590.6103515625	1443.124267578125	-612.8259277343749	495.0084228515625	1474.126342773438	-627.8197021484374	364.2907104492188	1488.93798828125	-711.6826782226561	356.4506225585938	1480.401000976562	-646.6841430664061	283.1762390136719	1484.513793945312	-685.1381225585936	1154.96240234375	1472.07958984375	-603.3871459960936	1327.588012695312	1410.068603515625	-607.5587158203124	1452.063110351562	1426.316772460938	-625.3211059570311	1600.825927734375	1428.07666015625	-649.8914184570311	1692.967163085938	1447.974487304688	-729.6292114257811	1696.491577148438	1415.055541992188	-671.4669189453124	1770.059692382812	1436.4150390625	-698.5060424804686	845.5596923828125	622.6280517578125	-644.0892944335938	859.8832397460938	473.7293090820313	-626.6927490234375	838.7511596679688	261.5919189453126	-579.811767578125	847.9473266601562	77.74642181396487	-566.2981567382812	893.7685546875	40.4393119812012	-521.4641723632812	874.9677124023438	46.46296691894536	-700.1910400390625	820.3562622070312	21.0539989471436	-667.6947631835938	1214.834350585938	616.7891235351562	-649.2957763671875	1204.650268554688	477.0390014648438	-635.2623901367188	1233.023803710938	339.7784423828126	-584.2273559570312	1195.999267578125	80.01177978515628	-558.59912109375	1153.871826171875	49.00079727172854	-518.05029296875	1171.657348632812	51.37322616577153	-682.8914794921875	1240.187133789062	18.11852836608891	-648.6951293945312	1027.606079101562	1412.561889648438	-728.0746459960936	1026.880126953125	1242.019775390625	-764.0885620117186	907.8203735351562	958.58935546875	-727.8673095703124	1157.442749023438	967.0516357421875	-711.4900512695311	1031.280029296875	1484.607788085938	-591.5497436523436	961.4866333007812	1004.772583007812	-574.3883056640624	1082.575439453125	1000.952453613281	-568.5474243164061	1112.434814453125	1317.498168945312	-548.3942871093749	1030.693603515625	1112.611938476562	-580.6986694335936	
1161	11.6	1096.244506835938	1683.119750976562	-738.8419799804686	964.0472412109375	1688.716064453125	-731.1103515624999	969.3947143554688	1678.199340820312	-590.5876464843749	1102.180541992188	1685.036865234375	-603.3665161132811	905.2991333007812	1467.120361328125	-587.3726806640624	744.8468627929688	1460.138427734375	-629.1165771484374	590.578369140625	1443.179809570312	-612.9088134765624	495.0228271484375	1474.188354492188	-627.9326171874999	364.2516174316406	1488.989990234375	-711.7918090820311	356.4775695800781	1480.379150390625	-646.7737426757811	283.1929626464844	1484.571166992188	-685.2467041015624	1153.174560546875	1472.000244140625	-601.9940185546874	1327.512573242188	1410.08837890625	-607.6404418945311	1452.021118164062	1426.422973632812	-625.3302612304686	1600.803466796875	1428.182495117188	-649.9000854492186	1692.992431640625	1448.10693359375	-729.5982666015624	1696.777099609375	1415.231079101562	-671.1795654296874	1770.006103515625	1436.552978515625	-698.4702758789061	845.554931640625	622.63623046875	-644.1561889648438	859.916259765625	473.7385864257813	-626.6881713867188	838.7962646484375	261.5594177246094	-579.9358520507812	847.9465942382812	77.71833038330081	-566.2947387695312	893.7792358398438	40.43347930908206	-521.4612426757812	874.9776611328125	46.44147872924809	-700.25537109375	820.3563232421875	21.06103515625004	-667.7612915039062	1214.889282226562	616.724853515625	-649.2969970703125	1204.622314453125	477.0317077636719	-635.2908325195312	1232.939575195312	339.8155212402344	-584.255126953125	1195.983154296875	79.96807861328128	-558.591552734375	1153.80810546875	48.98640060424808	-518.0635375976562	1171.6328125	51.403736114502	-682.892578125	1240.247314453125	18.16307258605961	-648.6779174804688	1027.771484375	1412.57373046875	-728.3037109374999	1026.911987304688	1241.874877929688	-764.1787109374999	907.9226684570312	958.492431640625	-728.0197753906249	1157.580078125	967.1154174804688	-711.4884643554686	1031.23583984375	1484.6083984375	-591.7133789062499	961.4837036132812	1004.682678222656	-574.4067993164061	1082.627807617188	1000.892333984375	-568.6666870117186	1112.344360351562	1317.467041015625	-548.4697265624999	1030.698486328125	1112.638305664062	-580.8098754882811	
1162	11.61	1096.142578125	1683.110473632812	-738.9313964843749	963.9464721679688	1688.723510742188	-731.1470336914061	969.3125	1678.27587890625	-590.4187622070311	1102.1435546875	1685.000610351562	-603.4450683593749	905.4163208007812	1467.087158203125	-587.3868408203124	744.8505859375	1460.196899414062	-629.1843872070311	590.6160278320312	1443.254516601562	-612.9530029296874	495.0590515136719	1474.258911132812	-628.0051269531249	364.3392028808594	1489.059448242188	-711.8940429687499	356.5418395996094	1480.592529296875	-647.0707397460936	283.2353210449219	1484.692626953125	-685.3561401367186	1153.257568359375	1471.994506835938	-602.1328735351561	1327.556396484375	1410.189453125	-607.6711425781249	1452.025634765625	1426.4755859375	-625.3350830078124	1600.845703125	1428.3056640625	-649.8664550781249	1693.816162109375	1447.522705078125	-730.2884521484374	1696.494750976562	1415.34619140625	-671.4348754882811	1770.509521484375	1436.197875976562	-699.4171752929686	845.605224609375	622.6190795898438	-644.123291015625	859.9740600585938	473.7674255371094	-626.7705078125	838.8601684570312	261.4593200683594	-579.9248046875	847.904541015625	77.69194793701175	-566.2315063476562	893.8289794921875	40.42985153198245	-521.4368896484375	874.9608764648438	46.39901351928715	-700.219970703125	820.3673706054688	21.03030204772953	-667.7096557617188	1214.841796875	615.9968872070312	-649.0267944335938	1204.662475585938	477.0134277343751	-635.2875366210938	1233.045776367188	339.8035888671876	-584.2572631835938	1196.014770507812	79.96784210205081	-558.585693359375	1153.849853515625	48.97377777099612	-518.0506591796875	1171.679809570312	51.3313255310059	-682.9140625	1240.163452148438	18.1377048492432	-648.705322265625	1027.678955078125	1412.501342773438	-728.3372802734374	1026.949096679688	1241.916625976562	-764.2225341796874	908.0371704101562	958.3994140625	-728.1238403320311	1157.535278320312	967.0301513671875	-711.6030883789061	1031.257568359375	1484.62939453125	-591.7465209960936	961.548828125	1004.805297851562	-574.5776367187499	1082.716186523438	1000.922180175781	-568.6997070312499	1112.437622070312	1317.472900390625	-548.5339355468749	1030.777954101562	1112.686401367188	-580.8187255859374	
